# xmcd
#
# Track frame offsets:
#	150
#	11257
#	23612
#	36091
#	47960
#	60985
#	72335
#	84553
#	96340
#	109050
#	120627
#	133351
#	143459
#	155391
#	167382
#	179451
#	194749
#	208305
#	220184
#	232569
#	245242
#	257258
#	269656
#	282632
#	295548
#
# Disc length: 4092 seconds
#
# Revision: 1
# Processed by: cddbd v1.5.2PL0 Copyright (c) Steve Scherf et al.
# Submitted via: audiograbber 1.83.01
#
DISCID=6c0ffa19
DTITLE=Captain Stubby and The Buccaneers - Captain Stubby and The Buccaneers
DYEAR=1900
DGENRE=Country
TTITLE0=Yearning
TTITLE1=If You Would Only Be Mine
TTITLE2=Knocking Song
TTITLE3=Each Time You Leave
TTITLE4=Forever With You
TTITLE5=I'll Never Tell
TTITLE6=Money Marbles and Chalk
TTITLE7=Tennessee Tears
TTITLE8=Country Boy
TTITLE9=Come Whet Your Moustache With Me
TTITLE10=Roses
TTITLE11=Little Buffalo Bill
TTITLE12=Helegged Hilegged
TTITLE13=Beautiful Morning Glory
TTITLE14=Bogul To Boogie To Boone
TTITLE15=It's Hard To Love
TTITLE16=I Was The Last One To Know
TTITLE17=Fair Fat and Forty
TTITLE18=Brazen Little Raisin
TTITLE19=Wah Hoo
TTITLE20=Old MacDonald Had A Farm
TTITLE21=Buffalo Gals
TTITLE22=Meet Me Tonight In The Cowshed
TTITLE23=Washboard Boogie
TTITLE24=Noah Was The Man
EXTD=
EXTT0=
EXTT1=
EXTT2=
EXTT3=
EXTT4=
EXTT5=
EXTT6=
EXTT7=
EXTT8=
EXTT9=
EXTT10=
EXTT11=
EXTT12=
EXTT13=
EXTT14=
EXTT15=
EXTT16=
EXTT17=
EXTT18=
EXTT19=
EXTT20=
EXTT21=
EXTT22=
EXTT23=
EXTT24=
PLAYORDER=
